<svg width="90" height="50" viewBox="0 0 90 50" fill="none" xmlns="http://www.w3.org/2000/svg">
<path d="M10.0495 16.2124C6.49139 14.1636 3.2457 12.3059 0 10.4482C28.8774 14.7938 54.8866 24.6318 74.746 49.2457C65.17 49.2457 56.7655 49.2859 48.3629 49.179C47.5838 49.1692 46.5455 48.4016 46.0838 47.6899C37.1257 33.8803 23.8949 24.9731 10.0495 16.2124Z" fill="currentColor"/>
<path d="M71.1144 14.6028C67.04 17.7843 63.2372 20.7358 60.2655 23.0422C49.4507 17.775 39.2354 12.7998 28.5988 7.61934C29.3688 5.60103 30.3505 3.02818 31.3968 0.285719C38.3174 0.285719 45.0841 0.285719 52.4698 0.285719C51.3542 3.50395 50.2693 6.63365 49.1843 9.76338C49.4396 10.0255 49.6948 10.2877 49.9501 10.5498C53.7198 7.82567 57.3724 4.91392 61.3087 2.45653C63.2739 1.22966 65.7323 0.270338 68.0117 0.167585C74.6568 -0.131853 81.3242 0.0612926 89.5295 0.0612926C82.8275 5.34779 77.1068 9.86027 71.1144 14.6028Z" fill="currentColor"/>
<path d="M29.1848 40.1891C31.2607 43.0904 35.6879 44.1096 34.6288 48.9379C27.5198 48.9379 20.4768 48.9379 12.7499 48.9379C15.0585 43.1925 17.291 37.6369 19.8005 31.3916C23.0523 34.4338 25.9933 37.1852 29.1848 40.1891Z" fill="currentColor"/>
</svg>
