<svg width="92" height="88" viewBox="0 0 92 88" fill="none" xmlns="http://www.w3.org/2000/svg">
<path d="M12.0402 6.37341C20.7344 11.2421 29.117 15.9148 37.8914 20.806C33.0231 29.2872 28.3348 37.4548 23.448 45.9682C28.1649 50.4744 32.9209 55.0179 38.0795 59.9462C25.3087 69.2123 13.1591 78.0278 0.312707 87.3487C0.386102 78.2877 -1.00794 70.0861 4.33004 62.38C8.55853 56.2756 11.7322 49.4138 15.0532 42.7288C15.7545 41.3172 15.666 38.8737 14.8946 37.4886C12.4753 33.145 9.8973 28.8005 6.75729 24.9671C0.897546 17.8134 -1.33301 9.92773 0.783624 0.362305C4.35729 2.26111 8.04293 4.2193 12.0402 6.37341Z" fill="currentColor"/>
<path d="M60.96 32.8459C58.6494 28.7884 56.5226 25.0477 54.0972 20.7816C66.561 13.8636 78.808 7.06598 91.5385 0C92.0173 8.27917 92.6574 15.7486 86.9171 22.4087C83.1516 26.7775 80.2379 31.9472 77.4095 37.0186C76.5071 38.6367 76.3847 41.4156 77.1476 43.1012C79.4702 48.2325 82.0609 53.313 85.1647 58.0049C90.9254 66.7134 93.455 75.9822 91.1745 86.94C79.0631 78.1832 66.9242 69.4066 55.0977 60.8558C59.6734 56.1133 64.2215 51.3993 68.8818 46.569C66.0862 41.7253 63.6151 37.444 60.96 32.8459Z" fill="currentColor"/>
<path d="M58.097 44.2881L52.3965 49.0342L45.9107 45.8283L38.0876 49.2722C38.0876 49.2722 35.8338 46.1917 34.0796 43.794C37.568 37.7393 41.5043 30.9071 45.9107 23.2588C49.9723 30.2688 54.072 37.257 58.097 44.2881Z" fill="currentColor"/>
</svg>
