<svg  viewBox="0 0 363 362" fill="none" xmlns="http://www.w3.org/2000/svg">
<path d="M158.215 361.755C140.553 361.69 123.388 361.81 106.231 361.491C95.5895 361.294 84.9569 360.471 74.5098 358.15C35.6241 349.51 12.4448 325.34 3.86597 286.726C0.923316 273.481 0.348273 259.964 0.252906 246.518C-0.0519952 203.533 -0.130853 160.541 0.296882 117.558C0.460334 101.134 1.11411 84.6152 5.66584 68.5789C16.3282 31.0145 41.2786 9.59818 79.445 3.0407C92.4466 0.806858 105.601 0.231808 118.739 0.177166C160.393 0.00392452 202.051 -0.132534 243.702 0.220676C263.497 0.388531 283.427 0.946362 302.321 8.00603C334.229 19.928 351.808 43.7604 358.526 76.4734C361.761 92.2247 362.139 108.237 362.288 124.173C362.662 164.325 362.667 204.485 362.264 244.637C362.083 262.749 361.498 280.99 355.543 298.426C343.933 332.419 320.169 352.263 284.961 358.711C272.959 360.908 260.857 361.636 248.688 361.65C218.697 361.685 188.706 361.72 158.215 361.755ZM34.5161 224.833C34.9933 242.464 34.4269 260.179 37.5812 277.626C41.7017 300.417 53.42 316.746 76.8086 323.253C91.9574 327.467 107.472 327.644 122.897 327.822C160.719 328.26 198.55 328.094 236.376 327.929C248.354 327.876 260.373 327.646 272.272 326.034C301.04 322.136 317.861 308.875 324.197 280.697C327.441 266.269 327.477 251.571 327.671 236.978C328.136 201.823 328.147 166.655 327.715 131.5C327.529 116.385 327.004 101.24 325.007 86.1633C321.327 58.3748 302.63 39.9206 275.076 36.4115C256.815 34.0858 238.5 34.3376 220.218 33.8996C194.071 33.2732 167.886 33.2699 141.739 33.8838C123.458 34.3129 105.132 33.9554 86.8889 36.4607C61.055 40.0083 43.9083 55.2647 38.43 80.6344C34.8172 97.365 34.885 114.405 34.6574 131.351C34.2434 162.174 34.5233 193.006 34.5161 224.833Z" fill="white"/>
<path d="M99.4548 221.977C72.8735 168.012 103.404 104.504 161.832 91.522C212.86 80.1842 263.301 114.976 271.696 166.527C279.921 217.037 244.323 264.242 194.003 271.4C155.238 276.915 119.323 257.983 99.4548 221.977ZM132.497 210.515C143.662 227.588 159.393 237.3 179.79 237.885C215.175 238.9 239.208 208.708 238.249 179.594C237.049 143.17 203.484 116.775 168.008 125.263C129.84 134.395 112.95 177.402 132.497 210.515Z" fill="white"/>
<path d="M280.712 63.1573C294.993 65.8367 304.474 82.9258 294.149 97.3525C288.552 105.173 277.689 108.111 268.643 104.283C259.062 100.229 253.953 90.3366 255.965 79.7344C257.729 70.4399 266.218 63.2516 275.789 62.9863C277.284 62.9448 278.784 63.0591 280.712 63.1573Z" fill="white"/>
</svg>