<svg viewBox="0 0 136 170" fill="none" xmlns="http://www.w3.org/2000/svg">
<path d="M44.5268 59.2569C44.6439 58.1883 44.653 56.8048 43.9659 56.1039C36.2754 48.259 28.4446 40.5518 20.7395 32.7209C19.3735 31.3326 17.9378 29.7006 17.3592 27.914C16.1131 24.0664 17.1005 20.6032 20.7767 18.4245C24.9241 15.9666 28.8155 16.7442 32.1375 20.0193C39.7266 27.5013 47.2279 35.0725 54.7478 42.6244C55.9933 43.8752 57.1524 45.2119 59.2953 47.5299C59.2953 34.172 59.285 22.2675 59.3083 10.363C59.3112 8.87522 59.2302 7.31151 59.6384 5.91461C60.8111 1.90243 64.7455 -0.466586 68.9315 0.0772059C73.2693 0.640692 76.1338 3.91071 76.1712 8.75448C76.2547 19.5846 76.2 30.4159 76.2016 41.2466C76.2018 42.8406 76.2016 44.4345 76.2016 47.6029C85.4216 38.2234 93.6025 29.8224 101.895 21.5328C103.511 19.9172 105.372 18.1359 107.45 17.483C111.16 16.3173 114.814 17.0994 117.119 20.6738C119.625 24.56 119.081 28.3601 115.899 31.5925C107.844 39.7741 99.6841 47.8523 91.572 55.9777C90.7733 56.7776 90.0145 57.6173 88.4602 59.2593C92.5233 59.2593 95.7429 59.2593 98.9625 59.2593C107.794 59.2594 116.625 59.2216 125.456 59.2721C131.849 59.3086 135.464 62.4514 135.494 67.8407C135.523 73.192 131.972 76.3307 125.439 76.3784C113.517 76.4654 101.595 76.4031 89.6733 76.4031C89.3761 76.83 89.0789 77.2568 88.7817 77.6837C95.7953 84.4149 102.815 91.1402 109.819 97.8813C111.738 99.7287 113.669 101.57 115.495 103.507C119.25 107.49 119.593 112.69 116.404 116.036C112.883 119.731 107.447 119.576 103.105 115.302C94.803 107.131 86.6656 98.7937 78.4448 90.5402C74.9381 87.0195 71.3934 83.5365 67.87 80.0402C56.2822 91.5462 44.8769 102.946 33.3578 114.229C31.6318 115.919 29.5505 117.678 27.3202 118.325C23.7262 119.368 20.4097 118.189 18.3023 114.742C15.8478 110.727 16.6218 107.073 19.7728 103.878C27.6029 95.9385 35.5084 88.0737 43.3764 80.1717C44.3101 79.234 45.1987 78.2512 46.6187 76.7494C44.8572 76.6022 43.67 76.4192 42.4824 76.4167C31.6516 76.3942 20.8202 76.4718 9.99024 76.3767C3.56734 76.3203 0.0277538 73.1243 0.000154757 67.7121C-0.0271132 62.3655 3.54984 59.3055 10.1032 59.2743C21.4337 59.2205 32.7647 59.2592 44.5268 59.2569Z" fill="#FBFBFB"/>
<path d="M59.5008 163.374C59.3486 148.476 59.2861 133.988 59.3209 119.501C59.3345 113.861 62.5888 110.328 67.5495 110.262C72.7974 110.192 76.1568 113.739 76.1803 119.616C76.2336 132.939 76.1233 146.262 76.2439 159.584C76.2864 164.282 74.7205 167.892 70.0857 169.184C65.201 170.546 61.721 168.29 59.5008 163.374Z" fill="#FAFAFA"/>
</svg>