<?xml version="1.0" encoding="UTF-8"?>
<svg id="Layer_1" data-name="Layer 1" xmlns="http://www.w3.org/2000/svg" viewBox="0 0 688.39 236.23">
  <defs>
    <style>
      .cls-1 {
        fill: #fff;
      }

      .cls-2 {
        fill: none;
      }
    </style>
  </defs>
  <path class="cls-2" d="M313.5,159.41c-11.09.57-22.12,1.95-32.63,5.87-13.07,4.31-25.12,11.28-38.34,15.21h-.01l-1.08,3.8c-1.43,5.01-6.86,9.1-12.06,9.1h-15.63l6.95-24.33c-6.34,4.87-12.31,10.19-18.29,15.56-15.45,13.59-36.1,18.12-55.99,20.63-1.95.24-3.91.46-5.86.69h46.77c5.9-1.28,11.75-2.73,17.55-4.27,19.56-6.14,35.73-9.26,55.72-2.45,3.7,1.52.99,4.73-1.03,6.72h32.03c3.78,0,7.62-1.08,11.11-2.94-1.31-.26-2.59-.59-3.86-.97-6.46-2.14-14.16-6.33-13.74-14.13.63-7.34,5.18-13.81,11.03-18.08,5.1-3.66,10.61-6.49,16.73-8.1.72-.16,1.4-.52,2.05-.88.84-.94-.07-1.34-1.42-1.43Z"/>
  <path class="cls-2" d="M376.76,138.45c-.77.11-2.07.35-2.01.86.32,1.45,3.44,1.31,5.56,1.31.63,0,1.35.01,1.98.05.69.02,1.38.07,2.06.13,1.36.11,2.72.28,4.08.48,1.34.22,2.68.48,4.03.78,1.22.29,2.65.48,3.76,1.07,3.08,1.64,4.32,4.66,3.55,8.01-.79,3.45-2.93,6.54-5.08,9.28-1.43,1.81-2.98,3.57-4.62,5.18-11.56,11.34-26.31,18.59-40.91,25.13-5.11,2.26-10.26,4.4-15.48,6.39-.02.01-.05.02-.07.03l-2.45,8.79h13.58c7.2-7.07,24.96-11.41,32.02-12.93,5.82-1.4,24.72-2.46,25.47,5.74.26,2.43.01,4.85-.63,7.19h4.84l5.9-21.21c-4.91.21-7.11-4.15-7.65-9.04.08-4.33.92-8.15,3.29-11.62,4.7-6.8,9.94-13.14,15.46-19.23h.01s4.87-17.53,4.87-17.53c-15.52,8.46-34.06,10.16-51.56,11.14Z"/>
  <path class="cls-2" d="M496.37,30.3c-1.52,0-3.05.17-4.56.51h0c.09.21.16.41.21.63,2.72,10.12.6,21.45-5,30.29-9.4,13.85-19.02,27.83-30.11,40.45h-.01s-3.04,10.68-3.04,10.68c4.15-4.29,8.29-8.56,12.45-12.84,3.97-3.56,7.34-8.67,12.99-9.43,1.53-.23,2.16.07,2.85,1.34,2.04,3.26.9,7.13-.24,10.54-10.66,25.63-23.6,51.86-45.1,70.08h-.01s-5.67,19.85-5.67,19.85h.01c14.65-15.58,27.38-32.98,38.32-51.32,12.67-20.12,20.64-42.5,30.35-64.05.42-.92.81-1.83,1.22-2.74.42-.9.82-1.81,1.24-2.72.42-.9.85-1.8,1.27-2.71.43-.9.87-1.79,1.31-2.68.43-.9.88-1.79,1.33-2.69.44-.89.89-1.78,1.34-2.66.46-.89.92-1.78,1.38-2.65.46-.89.93-1.76,1.39-2.64.47-.89.95-1.76,1.42-2.64.48-.87.96-1.75,1.44-2.62.48-.87.96-1.74,1.45-2.61.49-.87.97-1.73,1.46-2.6s.98-1.74,1.49-2.6c.49-.86.99-1.73,1.48-2.59.51-.86,1.01-1.71,1.52-2.58.5-.86,1-1.72,1.51-2.57.51-.87,1.02-1.72,1.52-2.58.37-.61.73-1.24,1.1-1.85h-28.31Z"/>
  <g>
    <path class="cls-1" d="M675.22,0H61.82c-5.89,0-11.05,4.66-12.66,11.43L.5,216.23c-2.37,10.04,3.94,20,12.66,20h612.57c5.87,0,11.02-4.62,12.64-11.35l49.5-204.82c2.42-10.04-3.89-20.06-12.65-20.06ZM472.25,48.49c2.44-8.54,10.71-15.76,19.56-17.68h0c.09.21.16.41.21.63,2.72,10.12.6,21.45-5,30.29-9.4,13.85-19.02,27.83-30.11,40.45l15.34-53.69ZM412.34,184.73c-4.91.21-7.11-4.15-7.65-9.04.08-4.33.92-8.15,3.29-11.62,4.7-6.8,9.94-13.14,15.46-19.23l-11.1,39.89ZM401.6,205.94h-56.86c7.2-7.07,24.96-11.41,32.02-12.93,5.82-1.4,24.72-2.46,25.47,5.74.26,2.43.01,4.85-.63,7.19ZM453.86,112.86c4.15-4.29,8.29-8.56,12.45-12.84,3.97-3.56,7.34-8.67,12.99-9.43,1.53-.23,2.16.07,2.85,1.34,2.04,3.26.9,7.13-.24,10.54-10.66,25.63-23.6,51.86-45.1,70.08h-.01s17.06-59.69,17.06-59.69ZM379.31,36.56c1.21-3.74,4.7-6.26,8.62-6.26h68.69l-10.6,32.44c-1.22,3.72-4.69,6.23-8.6,6.23h-68.71l10.6-32.41ZM440.35,84.09l-12.03,43.22c-15.52,8.46-34.06,10.16-51.56,11.14-.77.11-2.07.35-2.01.86.32,1.45,3.44,1.31,5.56,1.31.63,0,1.35.01,1.98.05.69.02,1.38.07,2.06.13,1.36.11,2.72.28,4.08.48,1.34.22,2.68.48,4.03.78,1.22.29,2.65.48,3.76,1.07,3.08,1.64,4.32,4.66,3.55,8.01-.79,3.45-2.93,6.54-5.08,9.28-1.43,1.81-2.98,3.57-4.62,5.18-11.56,11.34-26.31,18.59-40.91,25.13-5.11,2.26-10.26,4.4-15.48,6.39-.02.01-.05.02-.07.03l31.47-113.06h75.27ZM360.71,30.3l-44.98,157.44c-1.82,6.38-6.89,12.01-13.02,15.26-1.31-.26-2.59-.59-3.86-.97-6.46-2.14-14.16-6.33-13.74-14.13.63-7.34,5.18-13.81,11.03-18.08,5.1-3.66,10.61-6.49,16.73-8.1.72-.16,1.4-.52,2.05-.88.84-.94-.07-1.34-1.42-1.43-11.09.57-22.12,1.95-32.63,5.87-13.07,4.31-25.12,11.28-38.34,15.21l42.91-150.19h75.27ZM39.09,189.95L84.7,30.3h75.28l-46.6,163.09h15.63c5.2,0,10.63-4.09,12.06-9.1L185.07,30.3h75.28l-39.65,138.76c-6.34,4.87-12.31,10.19-18.29,15.56-15.45,13.59-36.1,18.12-55.99,20.63-1.95.24-3.91.46-5.86.69H51.15c-9.15,0-14.58-7.2-12.06-15.99ZM204.88,201.67c19.56-6.14,35.73-9.26,55.72-2.45,3.7,1.52.99,4.73-1.03,6.72h-72.24c5.9-1.28,11.75-2.73,17.55-4.27ZM648.52,46.29l-45.61,159.65h-75.28l46.6-143.52h-15.63c-5.2,0-10.63,4.1-12.06,9.1l-44,134.42h-75.28l3.86-13.53.02-.02c14.65-15.57,27.38-32.97,38.32-51.31,12.67-20.12,20.64-42.5,30.35-64.05.42-.92.81-1.83,1.22-2.74.42-.9.82-1.81,1.24-2.72.42-.9.85-1.8,1.27-2.71.43-.9.87-1.79,1.31-2.68.43-.9.88-1.79,1.33-2.69.44-.89.89-1.78,1.34-2.66.46-.89.92-1.78,1.38-2.65.46-.89.93-1.76,1.39-2.64.47-.89.95-1.76,1.42-2.64.48-.87.96-1.75,1.44-2.62.48-.87.96-1.74,1.45-2.61.49-.87.97-1.73,1.46-2.6s.98-1.74,1.49-2.6c.49-.86.99-1.73,1.48-2.59.51-.86,1.01-1.71,1.52-2.58.5-.86,1-1.72,1.51-2.57.51-.87,1.02-1.72,1.52-2.58.37-.61.73-1.24,1.1-1.85h111.78c9.15,0,14.58,7.19,12.06,15.99Z"/>
    <path class="cls-1" d="M532.36,10.35c-.77,1.07-1.5,2.15-2.22,3.24-1.08,1.64-2.14,3.29-3.2,4.95-1.06,1.64-2.13,3.3-3.24,4.9-1.12,1.62-2.27,3.2-3.49,4.73-.28.34-.55.67-.83,1-.31.39-.63.76-.96,1.13-.85.98-1.72,1.96-2.61,2.89-.62.65-1.27,1.28-1.98,1.85-.69.56-1.41,1.11-2.31,1.3-.87.18-1.91.22-2.56-.5-.56-.64-.66-1.57-.66-2.39,0-1.05.17-2.11.4-3.15.24-1.08.56-2.15.85-3.19.11-.39.19-.8.31-1.19,1.57-5.21,3.24-10.4,4.97-15.57h-10.81c-3.68,3.81-7.59,7.31-11.66,10.66-1.81,1.49-6.02,3.49-5.53,4.38.47.82,3.9,2.82,4.98,5.41v.02c.09.2.16.4.21.62,2.72,10.12.6,21.45-5,30.29-9.4,13.85-19.02,27.83-30.11,40.45h-.01c-5.96,6.8-12.35,13.19-19.34,18.95-2.71,2.21-5.57,4.14-8.55,5.81-.23.13-.46.25-.69.37-15.52,8.46-34.06,10.16-51.56,11.14-.77.11-2.07.35-2.01.86.32,1.45,3.44,1.31,5.56,1.31.63,0,1.35.01,1.98.05.69.02,1.38.07,2.06.13,1.36.11,2.72.28,4.08.48,1.34.22,2.68.48,4.03.78,1.22.29,2.65.48,3.76,1.07,3.08,1.64,4.32,4.66,3.55,8.01-.79,3.45-2.93,6.54-5.08,9.28-1.43,1.81-2.98,3.57-4.62,5.18-11.56,11.34-26.31,18.59-40.91,25.13-5.11,2.26-10.26,4.4-15.48,6.39-.02.01-.05.02-.07.03-5.31,2.03-10.67,3.89-16.12,5.57-4.8,1.63-9.9,1.34-14.78.28-1.31-.26-2.59-.59-3.86-.97-6.46-2.14-14.16-6.33-13.74-14.13.63-7.34,5.18-13.81,11.03-18.08,5.1-3.66,10.61-6.49,16.73-8.1.72-.16,1.4-.52,2.05-.88.84-.94-.07-1.34-1.42-1.43-11.09.57-22.12,1.95-32.63,5.87-13.07,4.31-25.12,11.28-38.34,15.21h-.01s-.06.02-.09.03c-8.11,2.59-23.27,4.31-16.95-8.98,2.16-3.93,5.71-6.62,8.89-9.66.71-2-2.21-.77-2.98-.28-3.7,2.31-7.25,4.81-10.69,7.46-6.34,4.87-12.31,10.19-18.29,15.56-15.45,13.59-36.1,18.12-55.99,20.63-1.95.24-3.91.46-5.86.69-12.89,1.5-25.84,2.76-38.84,2.41-.8.12-2.52-.27-2.68.84.18,1.03,1.46.89,2.3,1.02,10.44.1,20.86.98,31.27,1.49,18.38.63,36.74-1.84,54.72-5.76,5.9-1.28,11.75-2.73,17.55-4.27,19.56-6.14,35.73-9.26,55.72-2.45,3.7,1.52.99,4.73-1.03,6.72-.24.23-.48.46-.68.65-2.08,2-3.91,4.21-5.33,6.74-2.31,4.04-4.34,8.24-6.1,12.55h9.76c3.29-6.6,7.43-12.49,14.14-16.24,4.29-2.4,8.89-3.34,13.8-3.01,4.15.19,12.18,4.02,8.68,9.08-2.82,3.83-6.18,7.31-9.95,10.17h18.57c.66-.33,1.33-.67,1.99-1.01,3.48-1.75,7.37-2.77,11.29-2.69,1.92.03,3.85.02,5.76.25,1.73.2,3.43.53,5.11.98,2.31.63,4.57,1.46,6.74,2.47h14.12c-3.19-4-6.32-8.91-5.8-14.24.18-2.06,1.3-3.96,3.07-5.7,7.2-7.07,24.96-11.41,32.02-12.93,5.82-1.4,24.72-2.46,25.47,5.74.26,2.43.01,4.85-.63,7.19-1.23,4.55-3.93,8.78-7.2,12.1-3.16,2.87-6.4,5.56-9.87,7.84h7.77c14.18-9.69,27.12-20.99,38.82-33.47l.02-.02c14.65-15.57,27.38-32.97,38.32-51.31,12.67-20.12,20.64-42.5,30.35-64.05.42-.92.81-1.83,1.22-2.74.42-.9.82-1.81,1.24-2.72.42-.9.85-1.8,1.27-2.71.43-.9.87-1.79,1.31-2.68.43-.9.88-1.79,1.33-2.69.44-.89.89-1.78,1.34-2.66.46-.89.92-1.78,1.38-2.65.46-.89.93-1.76,1.39-2.64.47-.89.95-1.76,1.42-2.64.48-.87.96-1.75,1.44-2.62.48-.87.96-1.74,1.45-2.61.49-.87.97-1.73,1.46-2.6s.98-1.74,1.49-2.6c.49-.86.99-1.73,1.48-2.59.51-.86,1.01-1.71,1.52-2.58.5-.86,1-1.72,1.51-2.57.51-.87,1.02-1.72,1.52-2.58.37-.61.73-1.24,1.1-1.85.15-.24.29-.48.43-.72.52-.85,1.02-1.71,1.54-2.56.51-.86,1.03-1.71,1.54-2.57.52-.85,1.04-1.7,1.54-2.55.52-.87,1.03-1.72,1.55-2.57.51-.85,1.03-1.7,1.54-2.57.52-.85,1.03-1.7,1.55-2.55.52-.86,1.03-1.71,1.53-2.57.27-.43.52-.86.78-1.29h-4.32ZM481.91,102.47c-10.66,25.63-23.6,51.86-45.1,70.08h-.01c-1.66,1.41-3.35,2.76-5.11,4.07-5.16,3.95-10.94,6.59-17.38,7.81-.64.17-1.24.27-1.81.29-.05,0-.11.01-.16.01-4.91.21-7.11-4.15-7.65-9.04.08-4.33.92-8.15,3.29-11.62,4.7-6.8,9.94-13.14,15.46-19.23h.01c.22-.26.44-.49.66-.74,1.44-1.6,2.91-3.17,4.4-4.74,8.38-8.89,16.85-17.71,25.35-26.5,4.15-4.29,8.29-8.56,12.45-12.84,3.97-3.56,7.34-8.67,12.99-9.43,1.53-.23,2.16.07,2.85,1.34,2.04,3.26.9,7.13-.24,10.54Z"/>
  </g>
  <g>
    <path class="cls-2" d="M259.57,205.94h-72.24c5.9-1.28,11.75-2.73,17.55-4.27,19.56-6.14,35.73-9.26,55.72-2.45,3.7,1.52.99,4.73-1.03,6.72Z"/>
    <path class="cls-2" d="M360.71,30.3l-44.98,157.44c-1.82,6.38-6.89,12.01-13.02,15.26-1.31-.26-2.59-.59-3.86-.97-6.46-2.14-14.16-6.33-13.74-14.13.63-7.34,5.18-13.81,11.03-18.08,5.1-3.66,10.61-6.49,16.73-8.1.72-.16,1.4-.52,2.05-.88.84-.94-.07-1.34-1.42-1.43-11.09.57-22.12,1.95-32.63,5.87-13.07,4.31-25.12,11.28-38.34,15.21l42.91-150.19h75.27Z"/>
    <path class="cls-2" d="M260.35,30.3l-39.65,138.76c-6.34,4.87-12.31,10.19-18.29,15.56-15.45,13.59-36.1,18.12-55.99,20.63-1.95.24-3.91.46-5.86.69H51.15c-9.15,0-14.58-7.2-12.06-15.99L84.7,30.3h75.28l-46.6,163.09h15.63c5.2,0,10.63-4.09,12.06-9.1L185.07,30.3h75.28Z"/>
    <path class="cls-2" d="M456.62,30.3l-10.6,32.44c-1.22,3.72-4.69,6.23-8.6,6.23h-68.71l10.6-32.41c1.21-3.74,4.7-6.26,8.62-6.26h68.69Z"/>
    <path class="cls-2" d="M401.6,205.94h-56.86c7.2-7.07,24.96-11.41,32.02-12.93,5.82-1.4,24.72-2.46,25.47,5.74.26,2.43.01,4.85-.63,7.19Z"/>
    <path class="cls-2" d="M374.75,139.31c.32,1.45,3.44,1.31,5.56,1.31.63,0,1.35.01,1.98.05.69.02,1.38.07,2.06.13,1.36.11,2.72.28,4.08.48,1.34.22,2.68.48,4.03.78,1.22.29,2.65.48,3.76,1.07,3.08,1.64,4.32,4.66,3.55,8.01-.79,3.45-2.93,6.54-5.08,9.28-1.43,1.81-2.98,3.57-4.62,5.18-11.56,11.34-26.31,18.59-40.91,25.13-5.11,2.26-10.26,4.4-15.48,6.39-.02.01-.05.02-.07.03l31.47-113.06h75.27l-12.03,43.22c-15.52,8.46-34.06,10.16-51.56,11.14-.77.11-2.07.35-2.01.86Z"/>
    <path class="cls-2" d="M487.02,61.73c-9.4,13.85-19.02,27.83-30.11,40.45l15.34-53.69c2.44-8.54,10.71-15.76,19.56-17.68h0c.09.21.16.41.21.63,2.72,10.12.6,21.45-5,30.29Z"/>
    <path class="cls-2" d="M648.52,46.29l-45.61,159.65h-75.28l46.6-143.52h-15.63c-5.2,0-10.63,4.1-12.06,9.1l-44,134.42h-75.28l3.86-13.53.02-.02c14.65-15.57,27.38-32.97,38.32-51.31,12.67-20.12,20.64-42.5,30.35-64.05.42-.92.81-1.83,1.22-2.74.42-.9.82-1.81,1.24-2.72.42-.9.85-1.8,1.27-2.71.43-.9.87-1.79,1.31-2.68.43-.9.88-1.79,1.33-2.69.44-.89.89-1.78,1.34-2.66.46-.89.92-1.78,1.38-2.65.46-.89.93-1.76,1.39-2.64.47-.89.95-1.76,1.42-2.64.48-.87.96-1.75,1.44-2.62.48-.87.96-1.74,1.45-2.61.49-.87.97-1.73,1.46-2.6s.98-1.74,1.49-2.6c.49-.86.99-1.73,1.48-2.59.51-.86,1.01-1.71,1.52-2.58.5-.86,1-1.72,1.51-2.57.51-.87,1.02-1.72,1.52-2.58.37-.61.73-1.24,1.1-1.85h111.78c9.15,0,14.58,7.19,12.06,15.99Z"/>
    <path class="cls-2" d="M481.91,102.47c-10.66,25.63-23.6,51.86-45.1,70.08h-.01s17.06-59.69,17.06-59.69c4.15-4.29,8.29-8.56,12.45-12.84,3.97-3.56,7.34-8.67,12.99-9.43,1.53-.23,2.16.07,2.85,1.34,2.04,3.26.9,7.13-.24,10.54Z"/>
    <path class="cls-2" d="M423.44,144.84l-11.1,39.89c-4.91.21-7.11-4.15-7.65-9.04.08-4.33.92-8.15,3.29-11.62,4.7-6.8,9.94-13.14,15.46-19.23Z"/>
  </g>
</svg>