<svg width="92" height="65" viewBox="0 0 92 65" fill="none" xmlns="http://www.w3.org/2000/svg">
<path d="M45.6221 20.2096C41.9419 13.7653 38.2618 7.32096 34.5345 0.794234C46.8632 -2.10942 59.6625 3.08357 66.3311 14.1618C74.9705 28.5139 83.1689 43.1315 91.5745 57.6646C80.7605 61.1824 66.7907 55.5282 59.8926 44.5954C55.3813 37.4453 51.3225 30.0098 46.9824 22.1007C46.4765 21.0694 46.0493 20.6395 45.6221 20.2096Z" fill="#FCFCFC"/>
<path d="M45.1352 20.3171C46.0493 20.6393 46.4766 21.0692 46.9373 21.7447C46.0353 22.5399 44.7182 22.8594 44.2259 23.6761C40.8849 29.2191 37.5577 34.7819 34.5269 40.4979C27.3029 54.1216 15.9782 59.8116 0 58.3571C1.73392 55.275 3.29022 52.4839 4.87036 49.7064C6.67667 46.5312 8.68344 43.4562 10.2914 40.1845C17.3309 25.8614 28.897 19.5362 45.1352 20.3171Z" fill="#FBFBFB"/>
<path d="M43.8485 39.029C44.512 37.8937 45.026 37.0806 45.5734 36.2148C55.1918 46.7862 55.2334 51.8462 45.6217 64.2401C43.2558 60.1026 40.8172 56.2175 38.8224 52.1166C38.2285 50.8957 38.452 48.8748 39.0487 47.5597C40.3429 44.7075 42.1197 42.0741 43.8485 39.029Z" fill="#F7F7F7"/>
</svg>
