<svg width="93" height="93" viewBox="0 0 93 93" fill="none" xmlns="http://www.w3.org/2000/svg">
<path d="M37.7855 91.6324C12.8368 86.6798 -2.90142 64.3834 0.447624 39.1867C3.5349 15.9594 25.6256 -1.66299 49.414 0.124895C73.9307 1.96752 92.8897 22.7571 92.2393 47.3494C91.5379 73.8752 68.2877 96.2642 37.7855 91.6324ZM29.1269 85.9802C30.5294 86.4905 31.9131 87.0613 33.3372 87.5019C51.0057 92.9676 70.3964 86.4508 81.1719 71.4448C92.1632 56.1382 92.0501 35.7939 80.8894 20.6275C69.8682 5.65098 50.5289 -0.626497 32.922 5.05751C15.7512 10.6007 4.43343 25.2911 2.87102 44.0634C1.47706 60.8116 11.4477 77.0712 29.1269 85.9802Z" fill="#EBEBEB"/>
<path d="M68.3839 28.4744C68.3884 31.913 68.6398 34.9352 68.294 37.8875C67.5327 44.3868 64.9887 50.0838 58.0338 51.7031C45.6386 54.5892 41.6197 63.4547 40.5198 74.7149C40.3467 76.4865 40.3333 78.2738 40.2248 80.4881C33.6239 78.3089 31.4671 73.243 30.6192 67.5558C28.0458 50.2961 44.3615 28.1804 61.6283 25.5087C64.0408 25.1354 67.499 23.5595 68.3839 28.4744Z" fill="#FBFBFB"/>
<path d="M56.8788 78.6804C51.7921 80.8471 47.0432 82.8794 41.1761 80.9482C45.131 71.0013 47.8594 61.1194 60.4904 57.9026C71.236 55.1661 75.6619 43.557 72.0892 31.8149C71.6225 30.2809 70.995 28.7957 70.1167 26.4014C76.9513 29.8312 79.3288 35.1134 79.2863 41.271C79.1717 57.8611 70.957 69.8756 56.8788 78.6804Z" fill="#F8F8F8"/>
<path d="M23.5831 58.946C16.3742 50.2393 11.406 41.1521 13.2339 29.5993C13.7811 26.141 15.2677 25.265 18.5826 25.9579C24.6774 27.232 30.552 28.7762 34.8021 33.7986C36.9412 36.3264 37.0643 38.5053 35.3507 41.7344C31.9914 48.0647 29.5413 54.8775 26.5833 61.7983C26.0614 61.3036 24.9527 60.2528 23.5831 58.946Z" fill="#FAFAFA"/>
<path d="M48.0834 28.2525C45.9291 29.8926 44.1097 31.3084 42.1113 32.8634C35.9521 24.0627 27.2251 21.9858 16.4023 23.4953C19.6935 18.9368 23.5832 17.9462 27.9441 17.8962C35.8372 17.8058 42.2598 21.3453 48.1457 26.1363C48.5091 26.4321 48.3397 27.3824 48.0834 28.2525Z" fill="#F5F5F5"/>
</svg>
