<svg width="51" height="92" viewBox="0 0 51 92" fill="none" xmlns="http://www.w3.org/2000/svg">
<path d="M0.523682 25.5358C0.407471 16.8279 0.407471 8.53992 0.407471 0C16.9481 0 33.502 0 49.988 0C49.988 8.79254 50.9844 17.5271 49.7404 25.93C48.1186 36.8847 37.9678 44.1166 26.2928 44.5087C13.6977 44.9316 4.49908 38.2789 0.523682 25.5358ZM33.6157 11.3108C26.1895 11.3108 18.7634 11.3108 11.1734 11.3108C11.3771 19.1328 9.396 27.0449 17.5439 31.5067C22.8777 34.4276 28.5582 34.3798 33.711 31.1273C41.2114 26.3928 39.1996 18.7806 39.2228 11.3108C37.496 11.3108 36.0435 11.3108 33.6157 11.3108Z" fill="#FCFCFC"/>
<path d="M15.8885 67.8859C17.9365 66.4142 19.6902 65.1697 22.6225 63.0887C14.4949 63.0887 7.54769 63.0887 0.317529 63.0887C0.317529 58.7977 0.317529 55.241 0.317529 51.4355C16.9553 51.4355 33.5421 51.4355 50.3537 51.4355C50.3537 54.9725 50.3537 58.4352 50.3537 62.6334C43.7999 62.6334 37.1488 62.6334 30.4976 62.6334C30.4136 63.007 30.3297 63.3804 30.2457 63.754C34.7926 66.9626 39.107 70.5917 43.9477 73.2692C52.2211 78.7568 50.5775 83.891 50.5775 91.2927C41.9364 85.3328 34.0611 79.9011 25.9748 74.3239C17.5774 80.0369 9.25625 85.6979 0.050866 91.9606C0.050866 87.4694 -0.118446 83.7516 0.160729 80.0677C0.238061 79.048 1.49068 77.9097 2.47469 77.2021C6.79366 74.0971 11.2119 71.1301 15.8885 67.8859Z" fill="#FCFCFC"/>
<path d="M34.1032 11.3105C36.0434 11.3105 37.496 11.3105 39.2228 11.3105C39.1995 18.7803 41.2113 26.3926 33.7109 31.1271C28.5581 34.3795 22.8776 34.4273 17.5439 31.5065C9.39592 27.0446 11.3771 19.1326 11.1733 11.3105C18.7633 11.3105 26.1894 11.3105 34.1032 11.3105Z" fill="#212121"/>
</svg>
