<svg width="79" height="92" viewBox="0 0 79 92" fill="none" xmlns="http://www.w3.org/2000/svg">
<path d="M9.21899 48.708C6.15411 32.6628 3.2088 17.0306 0 0C5.71948 4.67282 10.6288 8.42304 15.1692 12.5766C16.3026 13.6136 16.3704 15.9263 16.7169 17.6941C18.7866 28.254 20.7945 38.8261 22.847 49.5181C27.1601 48.757 31.0607 48.0687 35.4592 47.2926C36.2723 51.5024 37.0742 55.6545 37.9702 60.2944C29.4829 62.1261 21.2952 63.8932 12.5305 65.7848C11.434 60.0605 10.3863 54.5908 9.21899 48.708Z" fill="#FAFAFA"/>
<path d="M54.2665 86.415C45.0837 81.7932 44.2936 73.1821 42.8336 64.8629C41.5446 57.5187 40.0686 50.2072 38.6295 42.6412C34.3707 43.434 30.4747 44.1593 26.0265 44.9873C25.2113 40.7688 24.4109 36.6271 23.5074 31.9519C31.9919 30.1164 40.1859 28.3437 48.9747 26.4424C53.1111 48.147 57.171 69.4497 61.4573 91.9408C58.5588 89.7244 56.5463 88.1855 54.2665 86.415Z" fill="#FAFAFA"/>
<path d="M61.5883 55.2062C60.0266 54.6677 58.0966 54.2768 57.8571 53.4156C56.8474 49.7863 56.342 46.0167 55.5055 41.5076C65.6718 40.6738 70.9857 48.837 78.4434 52.7518C72.9614 53.547 67.4794 54.3422 61.5883 55.2062Z" fill="#F5F5F5"/>
</svg>
