<svg width="91" height="89" viewBox="0 0 91 89" fill="none" xmlns="http://www.w3.org/2000/svg">
<path d="M51.5497 22.2337C50.7876 23.4327 49.9623 24.9382 49.9551 26.4476C49.8662 44.9463 49.8973 63.4455 49.8972 81.9446C49.8972 83.5675 49.8972 85.1904 49.8972 88.1247C42.345 80.5018 35.5477 73.9459 29.2017 66.9789C27.9274 65.5799 28.2626 62.6279 28.0533 60.3737C27.8862 58.5738 28.0195 56.746 28.0195 55.7314C24.5547 55.7314 21.3245 56.2555 18.3403 55.6217C12.2207 54.3221 6.23291 52.4018 0 50.6844C12.3115 38.4735 24.2423 26.6403 36.3192 14.6621C36.8539 19.8458 37.908 24.9556 32.576 29.349C26.5878 34.2831 21.241 39.9956 15.4709 45.5071C19.8107 48.5399 22.4888 47.7428 25.1971 44.6078C28.4568 40.8345 32.1622 37.4461 35.9623 33.6C38.7428 44.4964 33.3053 56.2322 39.2886 66.274C39.9377 66.2177 40.5869 66.1614 41.236 66.105C41.236 44.4781 41.236 22.8512 41.236 0C48.6399 7.45404 55.2375 13.8061 61.4106 20.5469C62.7046 21.9599 62.6042 24.7867 62.8377 26.9946C63.0621 29.1171 62.8862 31.282 62.8862 32.4784C66.4282 32.4784 69.637 31.9941 72.637 32.5797C78.7868 33.78 84.8246 35.5541 90.6779 37.0337C78.5632 49.0073 66.5499 60.8806 54.7576 72.5356C54.6785 68.4266 53.1829 63.4282 58.4313 59.0499C64.3988 54.0718 69.6069 48.1833 75.236 42.6002C71.5867 39.445 68.9097 40.195 66.2222 43.3463C62.9234 47.2143 59.3542 50.8517 55.902 54.5889C55.4619 54.3179 55.0218 54.0469 54.5817 53.776C54.5817 45.5201 54.7669 37.2573 54.4573 29.0131C54.3752 26.8267 52.7717 24.6974 51.5497 22.2337Z" fill="#FAFAFA"/>
</svg>
