<svg width="77" height="93" viewBox="0 0 77 93" fill="none" xmlns="http://www.w3.org/2000/svg">
<path d="M28.861 37.5287C36.1288 34.0531 42.9241 30.5668 49.8606 27.3884C52.694 26.0901 53.7008 24.4158 53.5362 21.291C53.2484 15.8227 53.456 10.3284 53.456 3.81625C58.6902 7.70602 63.2816 11.7002 68.4182 14.787C74.7528 18.5937 77.376 23.3227 76.7141 30.9495C75.9112 40.2022 76.2687 49.588 76.6431 58.8953C76.8034 62.8808 75.3785 65.0234 72.0319 66.6182C69.3605 67.8913 66.8561 69.5151 64.1117 71.0776C62.9365 69.9817 61.8778 68.9945 60.4955 67.7055C61.3746 66.967 61.9817 66.1235 62.7884 65.8315C70.0362 63.2078 71.888 58.0574 71.1953 50.6874C70.4973 43.2618 70.844 35.712 71.1254 28.2314C71.265 24.5219 70.4311 21.9201 67.0047 20.08C64.4401 18.7028 62.1864 16.7464 59.5842 14.8986C59.2369 15.7934 58.8602 16.2614 58.9409 16.6292C61.13 26.6072 56.1078 31.4138 47.2989 34.8003C38.7179 38.099 30.677 42.8028 21.8628 47.1544C21.8628 36.0729 21.8102 25.7867 21.9433 15.5028C21.9567 14.4637 22.8389 12.9521 23.7442 12.4839C31.8162 8.30933 39.984 4.32025 48.6801 0C48.6801 7.20419 48.6801 13.7219 48.6801 20.1979C42.6758 18.3264 43.7552 13.4369 43.8017 8.16595C38.4036 10.9511 33.4599 13.4341 28.6057 16.0813C27.8994 16.4666 27.2172 17.6328 27.2092 18.4444C27.1479 24.5928 27.2441 30.743 27.3616 36.8914C27.3665 37.1483 28.0683 37.392 28.861 37.5287Z" fill="#F2F2F2"/>
<path d="M12.2078 79.1378C1.99945 74.0865 -1.06604 66.231 0.310558 55.4537C1.2527 48.0777 0.753765 40.4713 0.388164 32.9928C0.183078 28.7977 1.2403 26.0804 5.24485 24.418C7.67255 23.4102 9.83574 21.7652 12.8693 19.959C13.7049 21.2441 14.5992 22.6196 15.5296 24.0506C15.4881 24.1133 15.3728 24.5226 15.1412 24.6049C6.68619 27.6109 4.89748 33.8392 5.72386 42.1309C6.41424 49.0582 6.05933 56.1183 5.76654 63.1028C5.61865 66.6305 6.505 69.0528 9.57062 70.9608C12.5008 72.7846 15.1302 75.0916 18.7055 77.8035C18.7055 72.9731 18.5334 68.9071 18.8025 64.8705C18.8919 63.5306 19.7856 61.6195 20.8704 61.0673C31.9499 55.4271 43.1446 50.0135 54.9487 44.2218C54.9487 55.1799 54.9898 65.6204 54.8768 76.0592C54.8669 76.9722 54.0649 78.2844 53.2583 78.718C44.9736 83.1709 36.6119 87.4807 27.8589 92.0457C27.8589 84.2527 27.8589 77.1529 27.8589 70.041C35.5604 70.9973 32.9074 77.1918 33.7762 82.2462C38.8177 79.8444 43.5959 77.6679 48.2497 75.252C49.0195 74.8523 49.6401 73.4124 49.6587 72.4404C49.7822 66.0008 49.7226 59.5578 49.7226 52.4399C41.1838 56.6525 33.1465 60.5186 25.2466 64.6475C24.3186 65.1325 23.7291 67.0522 23.695 68.3259C23.535 74.3094 23.6238 80.2995 23.6238 87.4752C19.4898 84.4654 15.987 81.9151 12.2078 79.1378Z" fill="#F7F7F7"/>
</svg>
