<svg width="64" height="93" viewBox="0 0 64 93" fill="none" xmlns="http://www.w3.org/2000/svg">
<path d="M41.9113 76.2067C41.4583 77.036 40.934 78.251 40.9451 79.4613C40.9805 83.3105 43.0804 87.9028 36.2955 89.6271C36.2955 85.2556 36.2955 81.2146 36.2955 77.1737C35.7596 77.1601 35.2237 77.1465 34.6878 77.1329C34.6878 80.8161 34.4642 84.5178 34.7681 88.1758C34.9635 90.5284 34.8315 92.2531 32.1101 92.4216C29.0299 92.6124 28.7744 90.7759 28.9636 88.1835C29.2398 84.3995 29.0346 80.5805 29.0346 76.7763C28.6165 76.7481 28.1984 76.7198 27.7803 76.6915C27.5201 80.8436 27.2599 84.9956 26.9986 89.1649C22.2941 87.8766 22.2941 87.8766 22.1069 80.3331C21.2783 81.5356 20.7046 82.3681 20.0866 83.2648C16.6467 81.9428 15.6492 79.5514 16.1917 76.1801C16.5867 73.7253 16.9944 71.2167 16.8912 68.7534C16.7864 66.2521 15.7398 64.212 12.508 64.6894C5.86527 65.6708 0.568735 59.6644 1.6464 52.9521C2.02719 50.5805 1.13269 47.9925 0.739389 45.5162C0.640375 44.8928 -0.0440651 44.2968 0.00224489 43.7258C0.665896 35.5406 -0.00814629 26.9092 2.42977 19.2764C7.38421 3.76466 26.5882 -3.83501 42.9789 1.91658C56.3948 6.6244 63.6999 17.4526 63.2682 31.7197C63.1689 35.0032 63.6635 38.3011 63.7024 41.5945C63.7171 42.8397 63.1955 44.0869 62.955 45.3402C62.5136 47.6405 62.1758 49.9633 61.6557 52.2451C60.918 55.481 60.5941 58.9708 59.097 61.8305C57.5115 64.859 54.7281 66.6845 50.6942 64.8677C50.0807 64.5914 47.3079 67.0997 46.9943 68.6212C46.4766 71.1324 47.5079 73.9294 47.2153 76.5305C46.9466 78.9204 45.7924 81.2106 45.0282 83.5447C44.3631 83.4219 43.6979 83.2991 43.0327 83.1763C42.7168 80.9809 42.401 78.7856 41.9113 76.2067ZM12.8992 57.0117C16.7345 57.0117 20.5699 57.0117 25.2044 57.0117C19.9536 49.9501 13.7683 46.5957 5.93768 45.0364C8.08274 48.8766 10.2278 52.7167 12.8992 57.0117ZM54.28 53.0969C55.2119 50.243 56.1439 47.3891 57.0759 44.5352C56.7662 44.2141 56.4564 43.8931 56.1467 43.5721C50.3723 47.5198 44.598 51.4676 38.8236 55.4154C44.4844 56.5566 49.7811 58.3711 54.28 53.0969Z" fill="#FCFCFC"/>
<path d="M12.636 56.7839C10.2278 52.7164 8.08275 48.8763 5.93768 45.0361C13.7683 46.5953 19.9536 49.9498 25.2044 57.0114C20.5699 57.0114 16.7346 57.0114 12.636 56.7839Z" fill="#282828"/>
<path d="M54.1103 53.4425C49.7812 58.3703 44.4844 56.5558 38.8236 55.4146C44.598 51.4668 50.3724 47.519 56.1467 43.5713C56.4565 43.8923 56.7662 44.2133 57.0759 44.5344C56.1439 47.3883 55.212 50.2422 54.1103 53.4425Z" fill="#282828"/>
</svg>
